<?xml version="1.0" encoding="UTF-8"?>
<svg version="1.1" xmlns="http://www.w3.org/2000/svg" width="698" height="142">
<path d="M0 0 C7.92 0 15.84 0 24 0 C24 11.22 24 22.44 24 34 C33.9 34 43.8 34 54 34 C54 22.78 54 11.56 54 0 C61.92 0 69.84 0 78 0 C78 30.36 78 60.72 78 92 C70.08 92 62.16 92 54 92 C54 80.45 54 68.9 54 57 C44.1 57 34.2 57 24 57 C24 68.55 24 80.1 24 92 C16.08 92 8.16 92 0 92 C0 61.64 0 31.28 0 0 Z " fill="#95A1A3" transform="translate(369,1)"/>
<path d="M0 0 C17.49 0 34.98 0 53 0 C53 5.36463795 52.8899968 9.76111494 52.0625 14.9375 C51.88847656 16.06027344 51.71445312 17.18304687 51.53515625 18.33984375 C51 21 51 21 50 22 C48.07332493 22.08748207 46.14348139 22.10697334 44.21484375 22.09765625 C43.04501953 22.09443359 41.87519531 22.09121094 40.66992188 22.08789062 C39.43822266 22.07951172 38.20652344 22.07113281 36.9375 22.0625 C35.08415039 22.05573242 35.08415039 22.05573242 33.19335938 22.04882812 C30.12888587 22.03699618 27.06443707 22.01906008 24 22 C24 25.96 24 29.92 24 34 C32.58 34 41.16 34 50 34 C50 41.26 50 48.52 50 56 C41.42 56 32.84 56 24 56 C24 60.62 24 65.24 24 70 C25.86527344 69.98839844 27.73054687 69.97679688 29.65234375 69.96484375 C32.08072817 69.95546775 34.50911367 69.94636735 36.9375 69.9375 C38.16919922 69.92912109 39.40089844 69.92074219 40.66992188 69.91210938 C41.83974609 69.90888672 43.00957031 69.90566406 44.21484375 69.90234375 C45.84087524 69.89448853 45.84087524 69.89448853 47.49975586 69.88647461 C50 70 50 70 51 71 C51.40463017 73.01133682 51.74826065 75.03507429 52.0625 77.0625 C52.23910156 78.16722656 52.41570313 79.27195312 52.59765625 80.41015625 C53.02821147 84.25171205 53 88.13439154 53 92 C35.51 92 18.02 92 0 92 C0 61.64 0 31.28 0 0 Z " fill="#95A2A3" transform="translate(645,1)"/>
<path d="M0 0 C17.49 0 34.98 0 53 0 C51 17 51 17 50 22 C41.09 22 32.18 22 23 22 C23 25.96 23 29.92 23 34 C31.91 34 40.82 34 50 34 C50 41.26 50 48.52 50 56 C41.09 56 32.18 56 23 56 C23 60.62 23 65.24 23 70 C31.91 70 40.82 70 50 70 C50.495 72.8875 50.99 75.775 51.5 78.75 C51.65662109 79.65331055 51.81324219 80.55662109 51.97460938 81.48730469 C52.09642578 82.20821289 52.21824219 82.92912109 52.34375 83.671875 C52.46943359 84.4050293 52.59511719 85.13818359 52.72460938 85.89355469 C53 88 53 88 53 92 C35.51 92 18.02 92 0 92 C0 61.64 0 31.28 0 0 Z " fill="#94A2A3" transform="translate(300,1)"/>
<path d="M0 0 C8.25 0 16.5 0 25 0 C27.04568366 5.84885405 29.09067918 11.69794025 31.1340332 17.54760742 C31.82700756 19.53081491 32.52035645 21.51389158 33.21411133 23.49682617 C37.22800877 34.9704868 41.20491106 46.45184411 45 58 C45.32685791 57.01942627 45.65371582 56.03885254 45.99047852 55.02856445 C46.31730118 54.04811157 46.31730118 54.04811157 46.65072632 53.04785156 C47.14369091 51.56893714 47.63663044 50.09001437 48.12954712 48.61108398 C49.49179234 44.52397679 50.85448458 40.43701956 52.21801758 36.3503418 C54.59459599 29.22613626 56.97024164 22.10175642 59.3203125 14.96875 C59.64314209 13.99123779 59.96597168 13.01372559 60.29858398 12.0065918 C60.87868299 10.24845049 61.45642946 8.48953072 62.03149414 6.72973633 C63.88829658 1.11170342 63.88829658 1.11170342 65 0 C66.78071246 -0.08726223 68.5648314 -0.10699041 70.34765625 -0.09765625 C71.42724609 -0.09443359 72.50683594 -0.09121094 73.61914062 -0.08789062 C75.32360352 -0.07532227 75.32360352 -0.07532227 77.0625 -0.0625 C78.77276367 -0.05573242 78.77276367 -0.05573242 80.51757812 -0.04882812 C83.34510604 -0.03699746 86.17251896 -0.01967618 89 0 C86.97086211 7.02412579 84.67771744 13.91454803 82.19140625 20.7890625 C81.82811722 21.79948608 81.46482819 22.80990967 81.0905304 23.85095215 C79.9174967 27.11004973 78.74024661 30.36760287 77.5625 33.625 C77.16315247 34.73228455 76.76380493 35.83956909 76.35235596 36.98040771 C69.71719339 55.37725356 62.94737505 73.718868 56 92 C48.41 92 40.82 92 33 92 C32.42668945 90.41058594 31.85337891 88.82117188 31.26269531 87.18359375 C28.83716788 80.46132913 26.40922921 73.73993748 23.97982407 67.01907349 C23.49492912 65.67760151 23.01008835 64.33610994 22.52530289 62.99459839 C16.19952341 45.49071662 9.85012477 27.99806802 3.20214844 10.61328125 C2.76805664 9.47246094 2.33396484 8.33164063 1.88671875 7.15625 C1.51764404 6.19525391 1.14856934 5.23425781 0.76831055 4.24414062 C0 2 0 2 0 0 Z " fill="#95A2A3" transform="translate(201,1)"/>
<path d="M0 0 C8.91 0 17.82 0 27 0 C35.15262942 21.29418133 43.05873725 42.67374435 50.92626953 64.07470703 C55.18823326 75.6655478 59.45657553 87.25369203 63.7734375 98.82421875 C64.32687584 100.30794983 64.32687584 100.30794983 64.89149475 101.82165527 C66.59981565 106.39940628 68.31107422 110.97603513 70.02612305 115.55126953 C70.63334322 117.17609091 71.24052335 118.80092726 71.84765625 120.42578125 C72.11029266 121.12338058 72.37292908 121.82097992 72.64352417 122.53971863 C74.92411677 128.6517776 76.9322137 134.79664111 79 141 C69.76 141 60.52 141 51 141 C47.328125 131.0859375 47.328125 131.0859375 46.05247498 127.6415863 C43.88034025 121.77668111 41.70801267 115.91184744 39.53540039 110.04711914 C38.60301004 107.53011708 37.67063048 105.01311104 36.73828125 102.49609375 C36.38435901 101.54063125 36.38435901 101.54063125 36.02328682 100.56586647 C32.98922093 92.37464897 29.95752502 84.1825604 26.92868042 75.9894104 C25.18974103 71.28562327 23.45005496 66.58211253 21.71020508 61.87866211 C20.86291739 59.58775094 20.01591138 57.29673557 19.16918945 55.00561523 C15.25752319 44.42285479 11.34596362 33.84119036 7.30078125 23.30859375 C7.03087875 22.60465988 6.76097626 21.90072601 6.4828949 21.17546082 C5.29598375 18.08352557 4.10115898 14.99533629 2.89233398 11.91186523 C2.49989502 10.89680908 2.10745605 9.88175293 1.703125 8.8359375 C1.36958008 7.98563965 1.03603516 7.1353418 0.69238281 6.25927734 C-0 4 -0 4 0 0 Z " fill="#95A2A3" transform="translate(0,1)"/>
<path d="M0 0 C1.04130212 2.46531356 1.1581772 3.58581096 0.19555664 6.10644531 C-0.44071655 7.20617676 -0.44071655 7.20617676 -1.08984375 8.328125 C-1.77143555 9.52695312 -1.77143555 9.52695312 -2.46679688 10.75 C-2.95212891 11.575 -3.43746094 12.4 -3.9375 13.25 C-4.41896484 14.09046875 -4.90042969 14.9309375 -5.39648438 15.796875 C-6.58683965 17.87115747 -7.78819948 19.93819665 -9 22 C-9.66821777 21.85925049 -10.33643555 21.71850098 -11.02490234 21.57348633 C-11.91129395 21.39068115 -12.79768555 21.20787598 -13.7109375 21.01953125 C-14.58540527 20.83753174 -15.45987305 20.65553223 -16.36083984 20.46801758 C-24.82498521 18.96702159 -31.4384713 20.20088011 -38.75 24.6875 C-43.4469817 29.51495342 -45.72807785 35.53299261 -46.25 42.1875 C-45.72206061 50.23857565 -43.08080663 56.58175099 -37 62 C-29.37369552 66.57578269 -22.28250114 66.77725024 -13.7265625 64.98828125 C-12.83791504 64.80434814 -11.94926758 64.62041504 -11.03369141 64.4309082 C-10.36257324 64.2887085 -9.69145508 64.14650879 -9 64 C-7.29241747 66.90534565 -5.61261646 69.82583418 -3.9375 72.75 C-3.45216797 73.575 -2.96683594 74.4 -2.46679688 75.25 C-2.01240234 76.04921875 -1.55800781 76.8484375 -1.08984375 77.671875 C-0.66566162 78.4050293 -0.24147949 79.13818359 0.19555664 79.89355469 C1.15541247 82.40694955 1.02784897 83.53912782 0 86 C-1.890625 87.01171875 -1.890625 87.01171875 -4.25 87.6875 C-5.40242187 88.03361328 -5.40242187 88.03361328 -6.578125 88.38671875 C-7.37734375 88.58910156 -8.1765625 88.79148437 -9 89 C-9.71542969 89.185625 -10.43085937 89.37125 -11.16796875 89.5625 C-25.92566044 91.84230892 -40.27921888 90.78641881 -52.8125 82.3125 C-62.51449889 74.73237713 -69.23035959 64.36960773 -71 52 C-72.0248708 37.50024337 -70.97905074 24.01811406 -62 12 C-61.2575 10.96875 -60.515 9.9375 -59.75 8.875 C-46.1224847 -5.37194781 -17.53785998 -10.40708175 0 0 Z " fill="#95A2A3" transform="translate(573,4)"/>
<path d="M0 0 C7.92 0 15.84 0 24 0 C24 22.77 24 45.54 24 69 C32.25 69 40.5 69 49 69 C49.99 76.59 50.98 84.18 52 92 C34.84 92 17.68 92 0 92 C0 61.64 0 31.28 0 0 Z " fill="#94A2A3" transform="translate(583,1)"/>
<path d="M0 0 C1.12591553 0.00523682 2.25183105 0.01047363 3.41186523 0.01586914 C4.62680664 0.0190918 5.84174805 0.02231445 7.09350586 0.02563477 C8.37290039 0.03401367 9.65229492 0.04239258 10.97045898 0.05102539 C12.2537207 0.05553711 13.53698242 0.06004883 14.85913086 0.06469727 C18.04211921 0.07652994 21.22501661 0.09301471 24.40795898 0.11352539 C22.53649222 5.94307693 20.46794502 11.62885017 18.09936523 17.27368164 C17.78037262 18.04114716 17.46138 18.80861267 17.13272095 19.59933472 C16.08160583 22.12614759 15.0260364 24.65107378 13.97045898 27.17602539 C13.22643504 28.96244426 12.48270782 30.74898673 11.73925781 32.53564453 C9.72852445 37.36559148 7.71389894 42.19390558 5.69836426 47.02185059 C3.00167764 53.48282704 0.30847319 59.94525607 -2.38484192 66.40763855 C-4.58522268 71.68722815 -6.78646542 76.96645258 -8.99023438 82.24462891 C-9.80152107 84.1892059 -10.61280071 86.13378583 -11.42407227 88.07836914 C-11.78697357 88.94662323 -12.14987488 89.81487732 -12.52377319 90.70944214 C-14.93407238 96.48956994 -17.28100291 102.29301659 -19.59204102 108.11352539 C-20.25204102 108.11352539 -20.91204102 108.11352539 -21.59204102 108.11352539 C-23.33806272 103.81580188 -25.0646251 99.51094659 -26.77392578 95.19848633 C-27.3575577 93.73382424 -27.94637046 92.27121522 -28.54052734 90.81079102 C-29.39577417 88.70600921 -30.23185627 86.59444414 -31.06469727 84.48071289 C-31.3323439 83.83359344 -31.59999054 83.186474 -31.87574768 82.51974487 C-34.86388055 74.80846252 -32.01109739 69.21697935 -28.94360352 62.07055664 C-28.57479568 61.19653702 -28.20598785 60.3225174 -27.82600403 59.42201233 C-26.62876449 56.58754517 -25.42290551 53.75683252 -24.21704102 50.92602539 C-22.57247296 47.040421 -20.93205232 43.15306902 -19.29125977 39.26586914 C-18.88595535 38.30747131 -18.48065094 37.34907349 -18.06306458 36.3616333 C-14.17307502 27.15258184 -10.40046602 17.89870075 -6.6784668 8.62060547 C-6.27740723 7.62569092 -5.87634766 6.63077637 -5.46313477 5.60571289 C-5.12209717 4.75348145 -4.78105957 3.90125 -4.4296875 3.02319336 C-3.16440213 0.13859348 -3.16440213 0.13859348 0 0 Z " fill="#95A2A3" transform="translate(112.592041015625,0.886474609375)"/>
<path d="M0 0 C7.92 0 15.84 0 24 0 C24 30.36 24 60.72 24 92 C16.08 92 8.16 92 0 92 C0 61.64 0 31.28 0 0 Z " fill="#95A1A3" transform="translate(467,1)"/>
<path d="M0 0 C1.32 0 2.64 0 4 0 C4 46.53 4 93.06 4 141 C2.68 141 1.36 141 0 141 C0 94.47 0 47.94 0 0 Z " fill="#93A4A4" transform="translate(164,1)"/>
<path d="M0 0 C1.98 0 3.96 0 6 0 C8.71558405 5.23719781 11.05680619 10.48688467 13.16796875 15.99609375 C13.83467323 17.9619739 13.83467323 17.9619739 15 19 C15.48210937 17.79601562 15.96421875 16.59203125 16.4609375 15.3515625 C17.09869196 13.77593382 17.73672741 12.20041886 18.375 10.625 C18.69210937 9.8309375 19.00921875 9.036875 19.3359375 8.21875 C19.6453125 7.45820312 19.9546875 6.69765625 20.2734375 5.9140625 C20.69761963 4.8614624 20.69761963 4.8614624 21.13037109 3.78759766 C22 2 22 2 24 0 C26.5625 -0.1875 26.5625 -0.1875 29 0 C30 1 30 1 30.11352539 3.59204102 C30.10828857 4.71795654 30.10305176 5.84387207 30.09765625 7.00390625 C30.09443359 8.21884766 30.09121094 9.43378906 30.08789062 10.68554688 C30.07951172 11.96494141 30.07113281 13.24433594 30.0625 14.5625 C30.05798828 15.84576172 30.05347656 17.12902344 30.04882812 18.45117188 C30.03699545 21.63416022 30.02051068 24.81705762 30 28 C28.35 28 26.7 28 25 28 C24.67 22.39 24.34 16.78 24 11 C21.69 16.61 19.38 22.22 17 28 C15.35 28 13.7 28 12 28 C9.69 22.06 7.38 16.12 5 10 C4.67 15.94 4.34 21.88 4 28 C2.35 28 0.7 28 -1 28 C-1.02891949 23.70834738 -1.04677118 19.41671964 -1.0625 15.125 C-1.07087891 13.90167969 -1.07925781 12.67835937 -1.08789062 11.41796875 C-1.09111328 10.25136719 -1.09433594 9.08476563 -1.09765625 7.8828125 C-1.10289307 6.80402832 -1.10812988 5.72524414 -1.11352539 4.61376953 C-1 2 -1 2 0 0 Z " fill="#96A2A3" transform="translate(295,114)"/>
<path d="M0 0 C3.0625 1.3125 3.0625 1.3125 5 3 C5 3.99 5 4.98 5 6 C4.18015625 5.91621094 3.3603125 5.83242187 2.515625 5.74609375 C1.43796875 5.64425781 0.3603125 5.54242188 -0.75 5.4375 C-1.81734375 5.33308594 -2.8846875 5.22867188 -3.984375 5.12109375 C-6.64141204 5.01439926 -8.49960572 5.18069605 -11 6 C-12.21628818 10.35094958 -12.57690134 14.508411 -12 19 C-10.62283334 21.71107713 -10.62283334 21.71107713 -8 23 C-4.3324787 23.33417929 -4.3324787 23.33417929 -1 23 C-0.67 20.69 -0.34 18.38 0 16 C-2.31 16 -4.62 16 -7 16 C-6.67 14.68 -6.34 13.36 -6 12 C-4.35425434 11.97311849 -2.70838587 11.95365877 -1.0625 11.9375 C-0.14597656 11.92589844 0.77054687 11.91429688 1.71484375 11.90234375 C4 12 4 12 5 13 C5.15154969 15.1420966 5.22177745 17.29023462 5.25 19.4375 C5.27578125 20.61183594 5.3015625 21.78617188 5.328125 22.99609375 C5.21984375 23.98738281 5.1115625 24.97867188 5 26 C1.47960293 28.34693138 -0.20057009 28.32723764 -4.375 28.375 C-6.05722656 28.41753906 -6.05722656 28.41753906 -7.7734375 28.4609375 C-11.68182301 27.90259671 -13.24072183 26.77877837 -16 24 C-19.0357917 19.49230929 -18.61270839 14.21936777 -18 9 C-14.12979977 0.97291804 -8.48622501 -1.15093468 0 0 Z " fill="#96A3A3" transform="translate(468,114)"/>
<path d="M0 0 C12.4 0 12.4 0 16 3 C17 4 17 4 17.25 7.3125 C16.98465249 11.22637577 16.41414965 12.1220795 14 15 C14.3609375 15.77085937 14.721875 16.54171875 15.09375 17.3359375 C15.5578125 18.33882812 16.021875 19.34171875 16.5 20.375 C16.9640625 21.37273437 17.428125 22.37046875 17.90625 23.3984375 C19 26 19 26 19 28 C17.35 28 15.7 28 14 28 C13.69707031 27.30132812 13.39414062 26.60265625 13.08203125 25.8828125 C12.66308594 24.97273438 12.24414062 24.06265625 11.8125 23.125 C11.20341797 21.76761719 11.20341797 21.76761719 10.58203125 20.3828125 C8.94615804 17.42931101 8.94615804 17.42931101 4 16 C4 19.96 4 23.92 4 28 C2.68 28 1.36 28 0 28 C0 18.76 0 9.52 0 0 Z M4 4 C4 6.64 4 9.28 4 12 C6.91652174 12.16681109 6.91652174 12.16681109 10 12 C10.66 11.34 11.32 10.68 12 10 C11.67958603 7.39719432 11.67958603 7.39719432 11 5 C8.69 4.67 6.38 4.34 4 4 Z " fill="#95A2A3" transform="translate(595,114)"/>
<path d="M0 0 C1.2065625 0.0309375 1.2065625 0.0309375 2.4375 0.0625 C12.4375 23.29654255 12.4375 23.29654255 12.4375 28.0625 C10.7875 28.0625 9.1375 28.0625 7.4375 28.0625 C5.9768715 25.41511084 5.4375 24.16801666 5.4375 21.0625 C1.8075 21.0625 -1.8225 21.0625 -5.5625 21.0625 C-6.2225 23.3725 -6.8825 25.6825 -7.5625 28.0625 C-9.2125 28.0625 -10.8625 28.0625 -12.5625 28.0625 C-10.75930404 21.62477407 -8.65045184 15.30618522 -6.4375 9 C-6.17179199 8.2376001 -5.90608398 7.4752002 -5.63232422 6.68969727 C-3.29363744 0.08033262 -3.29363744 0.08033262 0 0 Z M-0.5625 7.0625 C-2.85295014 11.87459901 -2.85295014 11.87459901 -3.5625 17.0625 C-1.2525 17.0625 1.0575 17.0625 3.4375 17.0625 C2.4475 13.7625 1.4575 10.4625 0.4375 7.0625 C0.1075 7.0625 -0.2225 7.0625 -0.5625 7.0625 Z " fill="#96A2A3" transform="translate(388.5625,113.9375)"/>
<path d="M0 0 C1.39456452 0.00667256 2.78911118 0.01863093 4.18359375 0.03515625 C4.89451172 0.03966797 5.60542969 0.04417969 6.33789062 0.04882812 C8.09899388 0.06064761 9.86005411 0.07858362 11.62109375 0.09765625 C11.62109375 1.41765625 11.62109375 2.73765625 11.62109375 4.09765625 C7.99109375 4.09765625 4.36109375 4.09765625 0.62109375 4.09765625 C0.62109375 6.73765625 0.62109375 9.37765625 0.62109375 12.09765625 C3.92109375 12.09765625 7.22109375 12.09765625 10.62109375 12.09765625 C10.62109375 13.08765625 10.62109375 14.07765625 10.62109375 15.09765625 C7.32109375 15.09765625 4.02109375 15.09765625 0.62109375 15.09765625 C0.62109375 18.06765625 0.62109375 21.03765625 0.62109375 24.09765625 C4.25109375 24.09765625 7.88109375 24.09765625 11.62109375 24.09765625 C11.62109375 25.41765625 11.62109375 26.73765625 11.62109375 28.09765625 C9.14185574 28.1245072 6.66290535 28.14442172 4.18359375 28.16015625 C3.47654297 28.16853516 2.76949219 28.17691406 2.04101562 28.18554688 C0.23415816 28.19419213 -1.57278228 28.14985636 -3.37890625 28.09765625 C-5.15340219 26.32316031 -4.50920697 23.74748364 -4.51171875 21.34765625 C-4.51300781 20.18234375 -4.51429688 19.01703125 -4.515625 17.81640625 C-4.51175781 16.58921875 -4.50789062 15.36203125 -4.50390625 14.09765625 C-4.50777344 12.87046875 -4.51164063 11.64328125 -4.515625 10.37890625 C-4.51433594 9.21359375 -4.51304687 8.04828125 -4.51171875 6.84765625 C-4.51059082 5.77 -4.50946289 4.69234375 -4.50830078 3.58203125 C-4.30845244 -0.25505682 -3.96381352 0.11456108 0 0 Z " fill="#95A2A3" transform="translate(530.37890625,113.90234375)"/>
<path d="M0 0 C2.32421875 0.18359375 2.32421875 0.18359375 5 1 C7.17922024 4.14776256 8.43997473 7.47880011 10 11 C11.65 7.37 13.3 3.74 15 0 C16.65 0 18.3 0 20 0 C19.4044161 4.09463933 18.0150486 7.03085082 16 10.625 C12.97481381 16.45825375 12.02570096 21.4719551 12 28 C10.35 28 8.7 28 7 28 C6.99742187 27.27296875 6.99484375 26.5459375 6.9921875 25.796875 C6.70380487 18.29892659 4.99493943 13.10172926 1.27734375 6.59375 C0 4 0 4 0 0 Z " fill="#94A2A3" transform="translate(663,114)"/>
<path d="M0 0 C1.32 0 2.64 0 4 0 C4 9.24 4 18.48 4 28 C2.68 28 1.36 28 0 28 C0 18.76 0 9.52 0 0 Z " fill="#95A2A2" transform="translate(236,114)"/>
</svg>
